# Blender v2.93.5 OBJ File: ''
# www.blender.org
mtllib cloud_02.mtl
o clouds_01_Plane
v 5.397099 17.762125 4.461916
v 5.397099 8.298731 6.989725
v 11.656133 7.585234 4.047921
v 9.762903 13.927715 3.831466
v -5.640470 -8.141872 0.347433
v -10.077555 -8.141872 0.347433
v -10.077555 -8.141871 -4.385479
v -5.640470 -8.141871 -4.385479
v 12.260844 7.632921 0.347439
v 11.656133 7.585236 -3.353043
v 9.762903 13.927715 -3.136583
v 10.270931 14.607243 0.347442
v 24.289879 -1.014403 0.348194
v 23.533169 -1.425752 -4.995330
v 22.624857 1.958482 -4.385476
v 23.328535 2.781179 0.347437
v 9.159108 1.989883 0.347437
v 9.159108 1.989885 -4.385476
v 19.994957 4.892177 4.256869
v 20.131996 5.714878 0.347438
v 15.467693 7.013481 0.347439
v 15.790954 6.457726 3.980190
v 19.994957 4.892179 -3.561992
v 15.790954 6.457728 -3.285311
v 9.847941 -5.514892 -6.271353
v 15.668561 -4.957268 -6.684532
v 16.444546 -8.141871 -4.385479
v 10.077555 -8.141871 -4.385479
v 23.126238 -3.601919 -4.385478
v 21.138962 -7.253829 -4.385479
v 19.113365 -4.344590 -6.470869
v -11.051206 14.806246 0.347442
v -5.919066 18.753170 0.347443
v -5.640470 18.073639 -3.830369
v -10.523252 14.126717 -3.136583
v -9.159108 1.989882 5.080350
v -5.640470 1.329882 7.793195
v -5.640470 8.436914 7.359520
v -11.656133 7.585234 4.047921
v -5.640470 -3.205613 7.340767
v -9.618328 -2.887917 7.340768
v 21.868567 -7.257724 0.347434
v 23.894157 -3.601920 0.347435
v 10.077555 -8.141874 5.080347
v 10.077555 -8.141872 0.347433
v 17.052294 -8.141872 0.347433
v 16.444206 -8.141874 5.080347
v -5.640470 8.460203 -6.726951
v -11.656133 7.585236 -3.353043
v -9.159108 1.989885 -4.385476
v -5.640470 1.329885 -7.308015
v -5.640470 -3.205608 -6.645897
v -9.618328 -2.887912 -6.645896
v 12.745570 5.647240 -3.268546
v 15.158973 -1.806196 -6.914373
v 9.618328 -2.887912 -6.645896
v 12.510692 6.062074 0.347439
v -5.640469 -5.673739 -6.271353
v -9.847939 -5.514892 -6.271353
v 9.618328 -2.887917 7.340768
v 9.847941 -5.514895 6.967738
v 15.694316 -4.955135 7.322714
v 15.217643 -1.801243 7.509328
v 12.745570 5.647238 3.963423
v 9.159108 1.989882 5.080350
v -5.640469 -5.673743 6.967738
v -9.847939 -5.514895 6.967738
v -5.640470 18.073639 4.525256
v -10.523252 14.126717 3.831466
v 5.397099 1.394322 7.793195
v -12.241940 7.632921 0.347439
v -24.518187 -1.014403 0.348194
v -23.577221 2.781179 0.347437
v -22.626249 1.958482 -4.385476
v -23.531654 -1.425752 -4.995330
v -9.159108 1.989883 0.347437
v -15.721046 -4.953149 7.323974
v -16.471704 -8.141874 5.080346
v -10.077555 -8.141874 5.080347
v -20.669308 6.197989 0.347438
v -16.485809 7.270405 0.347439
v -16.781279 6.650985 -3.621968
v -20.669308 5.375291 -3.561992
v -16.472061 -8.141871 -4.385479
v -15.695281 -4.955282 -6.686003
v -23.126238 -3.601919 -4.385478
v -19.135984 -4.327888 -6.462426
v -21.154789 -7.224748 -4.385479
v 5.397098 -5.845680 6.967738
v 5.397099 -3.549487 7.340767
v 5.397099 17.766590 -3.767030
v 5.397099 8.514175 -6.871373
v -21.155449 -7.223536 5.080347
v -23.126238 -3.601922 5.080348
v -24.093241 -3.601920 0.347435
v -21.914585 -7.245603 0.347434
v -12.998798 5.992760 3.949277
v -15.242467 -1.796425 7.510076
v 5.397098 -5.845676 -6.271353
v 5.397099 -3.549482 -6.645897
v 5.397099 1.394326 -7.308015
v -15.183740 -1.801360 -6.915573
v -12.998796 5.992762 -3.254400
v -12.649661 6.368142 0.347439
v -17.025450 -1.307134 -6.622396
v -20.669308 5.375287 4.256869
v -16.781279 6.650981 4.316846
v 5.397099 -8.141872 0.347433
v 5.397099 -8.141871 -4.385479
v 0.000000 -5.845680 6.967738
v 0.000000 -8.141874 5.080347
v 5.397099 -8.141874 5.080347
v -0.088258 19.686636 4.493587
v 0.000000 8.900112 8.599072
v -0.201924 0.684969 7.793195
v 0.000000 -5.845676 -6.271353
v 0.000000 -8.141871 -4.385479
v -0.125358 19.688869 -3.798699
v 0.000000 8.900118 -7.904192
v -0.120657 0.684972 -7.308015
v 0.000000 -8.141872 0.347433
v -5.640470 -8.141874 5.080347
v -0.102810 20.367283 0.347444
v 5.682171 18.443888 0.347443
v 0.000000 -3.549487 7.340767
v 0.000000 -3.549482 -6.645897
v -22.626249 1.958478 5.080349
v -19.166050 -4.323324 7.101871
v -23.531654 -1.425755 5.691717
v -17.079451 -8.141872 0.347433
v -17.085817 -1.301157 7.213353
v 22.624857 1.958478 5.080349
v 23.126238 -3.601922 5.080348
v 23.533169 -1.425755 5.691717
v 19.143179 -4.340314 7.110140
v 21.139509 -7.252829 5.080347
v 17.058168 -1.310737 7.223312
v 16.998074 -1.316550 -6.632634
vn 0.3812 0.2116 0.8999
vn 0.3920 0.2037 0.8971
vn 0.3889 0.2036 0.8985
vn 0.3814 0.1982 0.9029
vn 0.0000 -1.0000 -0.0000
vn 0.0003 -1.0000 -0.0002
vn 0.9444 0.2779 -0.1754
vn 0.9438 0.2819 -0.1727
vn 0.9454 0.2778 -0.1703
vn 0.9455 0.2742 -0.1756
vn 0.9388 0.2683 -0.2160
vn 0.9495 0.2623 -0.1723
vn 0.9586 0.2570 -0.1228
vn 0.9600 0.2148 -0.1796
vn 0.8958 -0.4390 -0.0699
vn 0.8989 -0.4348 -0.0545
vn 0.8952 -0.4419 -0.0581
vn 0.8938 -0.4440 -0.0633
vn 0.2985 0.9401 0.1645
vn 0.2985 0.9401 -0.1645
vn -0.0008 -0.5844 -0.8114
vn 0.4830 -0.2851 -0.8279
vn -0.6117 0.7651 -0.2012
vn -0.6087 0.7702 -0.1904
vn -0.6070 0.7666 -0.2096
vn -0.6146 0.7640 -0.1962
vn -0.5282 0.0017 0.8491
vn -0.5383 -0.0031 0.8427
vn -0.5392 -0.0127 0.8421
vn -0.5266 -0.0219 0.8498
vn 0.7289 0.6507 -0.2128
vn 0.6564 0.7151 -0.2403
vn 0.6513 0.7368 -0.1815
vn 0.6963 0.7065 -0.1265
vn -0.3116 0.1948 0.9300
vn -0.3165 0.1884 0.9297
vn -0.3058 0.1863 0.9337
vn -0.3098 0.1943 0.9307
vn 0.8682 -0.4768 -0.1375
vn -0.0008 -1.0000 0.0005
vn 0.0008 -1.0000 0.0005
vn -0.4144 0.2114 -0.8852
vn -0.4240 0.2071 -0.8816
vn -0.4212 0.2150 -0.8811
vn -0.4151 0.2014 -0.8872
vn -0.5529 0.0085 -0.8332
vn -0.5383 0.0064 -0.8427
vn -0.5566 -0.0078 -0.8307
vn -0.5534 0.0034 -0.8329
vn -0.3381 0.1741 -0.9249
vn -0.3392 0.1748 -0.9243
vn -0.3297 0.1703 -0.9286
vn -0.3445 0.1715 -0.9230
vn 0.0009 -1.0000 -0.0002
vn -0.1258 0.4045 -0.9058
vn -0.0438 -0.1095 -0.9930
vn -0.7392 0.6713 -0.0542
vn -0.0097 -0.1462 -0.9892
vn -0.0086 -0.1448 -0.9894
vn -0.0073 -0.1442 -0.9895
vn -0.0085 -0.1537 -0.9881
vn -0.0311 -0.1001 0.9945
vn -0.7392 0.6713 0.0542
vn -0.0039 -0.1485 0.9889
vn -0.0097 -0.1538 0.9880
vn -0.0083 -0.1453 0.9893
vn -0.0076 -0.1443 0.9895
vn -0.4074 0.2085 0.8891
vn -0.4127 0.1930 0.8902
vn -0.3994 0.1996 0.8948
vn -0.4181 0.2030 0.8854
vn 0.4928 0.0375 0.8693
vn 0.4912 0.0298 0.8705
vn 0.4925 0.0265 0.8699
vn 0.4920 0.0298 0.8701
vn -0.9698 0.1826 -0.1616
vn -0.9713 0.1657 -0.1708
vn -0.9724 0.1634 -0.1665
vn -0.9751 0.1614 -0.1522
vn -0.9411 0.2627 -0.2127
vn -0.9367 0.2500 -0.2451
vn -0.9526 0.2336 -0.1949
vn -0.9421 0.2802 -0.1841
vn -0.9010 -0.4293 -0.0617
vn -0.8938 -0.4419 -0.0764
vn -0.8896 -0.4518 -0.0676
vn -0.8976 -0.4381 -0.0477
vn -0.0028 -0.5788 0.8155
vn -0.2767 0.9470 -0.1630
vn 0.0008 -0.5844 -0.8114
vn -0.4828 -0.2850 -0.8280
vn 0.0182 -0.1479 0.9888
vn 0.0178 -0.1475 0.9889
vn 0.0146 -0.1485 0.9888
vn 0.0182 -0.1499 0.9885
vn 0.2902 0.1869 0.9385
vn 0.2907 0.1889 0.9380
vn 0.2835 0.1841 0.9412
vn 0.2897 0.1859 0.9389
vn -0.7895 0.5684 -0.2316
vn -0.8121 0.5508 -0.1926
vn -0.7809 0.6011 -0.1701
vn -0.7661 0.6043 -0.2189
vn 0.4336 0.2513 -0.8654
vn 0.4436 0.2336 -0.8653
vn 0.4407 0.2394 -0.8651
vn 0.4497 0.2412 -0.8600
vn -0.8575 -0.4898 0.1575
vn 0.1192 0.3935 0.9116
vn 0.0171 -0.1496 -0.9886
vn 0.0187 -0.1499 -0.9885
vn 0.0170 -0.1523 -0.9882
vn 0.0144 -0.1495 -0.9887
vn 0.3159 0.1679 -0.9338
vn 0.3195 0.1645 -0.9332
vn 0.3113 0.1610 -0.9366
vn 0.3127 0.1669 -0.9351
vn 0.0311 -0.0999 0.9945
vn 0.1316 0.3970 -0.9083
vn 0.0438 -0.1094 -0.9930
vn 0.7472 0.6618 -0.0611
vn 0.5358 -0.0020 -0.8444
vn 0.5424 -0.0057 -0.8401
vn 0.5434 -0.0150 -0.8393
vn 0.5380 -0.0120 -0.8429
vn -0.2417 0.1808 -0.9534
vn -0.2767 0.9470 0.1630
vn 0.0009 -1.0000 -0.0004
vn 0.0004 -1.0000 -0.0008
vn 0.0007 -0.6361 0.7716
vn 0.0000 -0.6350 0.7725
vn 0.0005 -0.6344 0.7730
vn -0.0008 -0.6347 0.7728
vn 0.2094 0.3053 0.9289
vn 0.2157 0.3168 0.9236
vn 0.2095 0.3081 0.9280
vn 0.2186 0.3141 0.9239
vn 0.1574 -0.0082 0.9875
vn 0.1522 0.0191 0.9882
vn 0.1448 -0.0014 0.9895
vn 0.1418 -0.0032 0.9899
vn -0.0100 -0.6212 -0.7836
vn -0.0095 -0.6207 -0.7840
vn -0.1527 0.3231 -0.9340
vn -0.1591 0.3301 -0.9304
vn -0.1477 0.3249 -0.9341
vn -0.1654 0.3268 -0.9305
vn -0.1160 -0.0050 -0.9932
vn -0.1134 0.0231 -0.9933
vn -0.0991 0.0023 -0.9951
vn -0.0999 -0.0071 -0.9950
vn 0.3165 0.9347 0.1616
vn 0.3192 0.9331 0.1657
vn 0.3289 0.9289 0.1701
vn 0.3253 0.9331 0.1537
vn 0.0298 -0.1041 0.9941
vn 0.0078 -0.0972 0.9952
vn 0.0063 -0.0980 0.9952
vn -0.0383 -0.1576 -0.9868
vn -0.0123 -0.1581 -0.9873
vn -0.0108 -0.1548 -0.9879
vn 0.6400 0.7403 -0.2060
vn 0.6429 0.7398 -0.1982
vn 0.6378 0.7396 -0.2151
vn 0.6351 0.7484 -0.1909
vn 0.0071 -0.1458 -0.9893
vn 0.0080 -0.1423 -0.9898
vn 0.0097 -0.1422 -0.9898
vn 0.0208 -0.1662 -0.9859
vn -0.0043 -0.1068 0.9943
vn -0.0077 -0.1024 0.9947
vn -0.0101 -0.1012 0.9948
vn -0.0176 -0.1254 0.9919
vn -0.2780 0.9479 0.1554
vn -0.2782 0.9446 0.1740
vn -0.2675 0.9494 0.1645
vn -0.2691 0.9492 0.1630
vn -0.0008 -1.0000 -0.0002
vn 0.0887 -0.0148 -0.9959
vn 0.0913 -0.0089 -0.9958
vn 0.1165 0.0007 -0.9932
vn 0.0985 -0.0225 -0.9949
vn 0.1728 0.3475 -0.9216
vn 0.1573 0.3408 -0.9269
vn 0.1721 0.3382 -0.9252
vn 0.1587 0.3382 -0.9276
vn -0.0005 -0.6358 -0.7719
vn 0.0001 -0.6350 -0.7725
vn 0.0000 -0.6347 -0.7728
vn -0.1067 -0.0289 0.9939
vn -0.1074 -0.0174 0.9941
vn -0.1318 -0.0125 0.9912
vn -0.1164 -0.0355 0.9926
vn -0.1707 0.3251 0.9301
vn -0.1531 0.3218 0.9343
vn -0.1722 0.3207 0.9314
vn -0.1601 0.3184 0.9343
vn -0.0090 -0.6220 0.7830
vn -0.0096 -0.6213 0.7835
vn -0.0095 -0.6210 0.7838
vn -0.2780 0.9450 -0.1724
vn -0.2794 0.9477 -0.1543
vn -0.2684 0.9494 -0.1632
vn -0.2670 0.9493 -0.1661
vn 0.6413 0.7425 0.1933
vn 0.6395 0.7407 0.2060
vn 0.6406 0.7454 0.1847
vn 0.6403 0.7387 0.2107
vn 0.3151 0.9340 -0.1682
vn 0.3152 0.9350 -0.1623
vn 0.3286 0.9309 -0.1593
vn 0.3320 0.9271 -0.1739
vn -0.7963 0.5840 0.1580
vn -0.8071 0.5535 0.2052
vn -0.7696 0.5970 0.2265
vn -0.7706 0.6094 0.1868
vn -0.4765 -0.2831 0.8324
vn -0.0003 -1.0000 0.0001
vn -0.1695 0.3216 0.9316
vn -0.1801 0.3267 -0.9278
vn -0.9003 -0.4324 0.0503
vn -0.8966 -0.4406 0.0442
vn -0.8886 -0.4545 0.0617
vn -0.8965 -0.4374 0.0710
vn -0.9411 0.2608 0.2154
vn -0.9486 0.2598 0.1807
vn -0.9491 0.2274 0.2177
vn -0.9333 0.2625 0.2449
vn -0.9691 0.1833 0.1651
vn -0.9722 0.1669 0.1641
vn -0.9720 0.1638 0.1684
vn -0.9699 0.1611 0.1829
vn 0.6380 0.7259 0.2568
vn 0.6701 0.7249 0.1598
vn 0.6474 0.7280 0.2256
vn 0.6853 0.6772 0.2680
vn -0.6124 0.7650 0.1994
vn -0.6067 0.7664 0.2111
vn -0.6081 0.7705 0.1912
vn -0.6136 0.7627 0.2041
vn 0.4766 -0.2831 0.8323
vn 0.0028 -0.5788 0.8155
vn 0.1322 0.3760 0.9171
vn -0.1134 0.4012 0.9089
vn 0.8967 -0.4395 0.0530
vn 0.8991 -0.4331 0.0631
vn 0.8946 -0.4421 0.0656
vn 0.8956 -0.4405 0.0617
vn 0.9494 0.2866 0.1285
vn 0.9494 0.2643 0.1694
vn 0.9456 0.2440 0.2153
vn 0.9636 0.2229 0.1476
vn 0.9448 0.2780 0.1736
vn 0.9444 0.2789 0.1742
vn 0.9443 0.2764 0.1784
vn 0.9475 0.2724 0.1678
vn 0.9736 -0.1823 0.1373
vn 0.9738 -0.1794 0.1395
vn 0.9730 -0.1818 0.1424
vn 0.9704 -0.2168 0.1065
vn -0.9646 -0.1914 0.1815
vn -0.9655 -0.1890 0.1793
vn -0.9573 -0.2231 0.1836
vn -0.9645 -0.1916 0.1819
vn 0.0000 -0.1558 0.9878
vn -0.0050 -0.1621 0.9868
vn -0.0005 -0.1624 -0.9867
vn -0.0014 -0.1605 -0.9870
vn -0.0069 -0.1563 -0.9877
vn 0.0000 -0.1604 0.9871
vn -0.8575 -0.4898 -0.1575
vn 0.0212 -0.6075 -0.7940
vn 0.0218 -0.6067 -0.7947
vn 0.0218 -0.6094 -0.7925
vn 0.0223 -0.6084 -0.7933
vn -0.2293 0.1815 0.9563
vn 0.0229 -0.6081 0.7936
vn 0.0226 -0.6068 0.7945
vn 0.0209 -0.6072 0.7943
vn 0.0226 -0.6081 0.7935
vn -0.9656 -0.1887 -0.1790
vn -0.9646 -0.1910 -0.1818
vn -0.9644 -0.2151 -0.1536
vn -0.9654 -0.1914 -0.1769
vn -0.0109 -0.5949 0.8037
vn -0.0107 -0.5956 0.8032
vn 0.8682 -0.4768 0.1375
vn -0.0109 -0.5946 -0.8039
vn -0.0105 -0.5944 -0.8041
vn -0.0118 -0.5949 -0.8037
vn 0.2294 0.1814 0.9563
vn 0.7472 0.6618 0.0611
vn 0.2419 0.1807 -0.9533
vn 0.9729 -0.1822 -0.1424
vn 0.9729 -0.1820 -0.1425
vn 0.9738 -0.1793 -0.1399
vn 0.9623 -0.2274 -0.1494
vn -0.1015 -0.0197 -0.9946
vn 0.0956 -0.0086 0.9954
vn -0.0991 -0.0069 0.9951
vn 0.0893 0.3762 -0.9222
vn 0.0978 -0.0215 -0.9950
vn 0.0867 0.3660 0.9265
vn 0.2052 0.9680 -0.1447
vn 0.1831 -0.9827 -0.0263
vn -0.0583 0.4051 -0.9124
vn -0.2789 0.9488 0.1485
vn -0.0548 0.3956 0.9168
vn -0.1871 -0.9819 -0.0292
vn 0.2052 0.9680 0.1447
vn 0.1832 -0.9827 0.0264
vn -0.2789 0.9488 -0.1485
vn -0.1872 -0.9819 0.0293
vn -0.1257 -0.5407 -0.8317
vn 0.1202 -0.5327 0.8377
vn -0.1241 -0.5312 0.8381
vn 0.1218 -0.5422 -0.8314
vn 0.1416 0.3831 -0.9128
vn 0.0873 0.3959 0.9142
vn 0.0912 0.4057 -0.9094
vn -0.1302 0.3533 -0.9264
vn -0.1271 0.3438 0.9304
usemtl FFFFFF
s 1
f 1//1 2//2 3//3 4//4
f 5//5 6//5 7//6 8//5
f 9//7 10//8 11//9 12//10
f 13//11 14//12 15//13 16//14
f 17//15 18//16 10//17 9//18
f 19//19 20//19 21//19 22//19
f 20//20 23//20 24//20 21//20
f 25//21 26//21 27//21 28//21
f 29//22 30//22 31//22 14//22
f 32//23 33//24 34//25 35//26
f 36//27 37//28 38//29 39//30
f 20//31 16//32 15//33 23//34
f 40//35 37//36 36//37 41//38
f 42//39 30//39 29//39 43//39
f 44//40 45//41 46//5 47//5
f 34//42 48//43 49//44 35//45
f 50//46 49//47 48//48 51//49
f 52//50 53//51 50//52 51//53
f 45//41 28//54 27//5 46//5
f 18//55 54//55 55//55 56//55
f 56//56 55//56 26//56 25//56
f 57//57 54//57 18//57 17//57
f 58//58 59//59 53//60 52//61
f 60//62 61//62 62//62 63//62
f 64//63 57//63 17//63 65//63
f 66//64 40//65 41//66 67//67
f 68//68 69//69 39//70 38//71
f 65//72 3//73 2//74 70//75
f 71//76 32//77 35//78 49//79
f 72//80 73//81 74//82 75//83
f 76//84 71//85 49//86 50//87
f 67//88 77//88 78//88 79//88
f 80//89 81//89 82//89 83//89
f 59//90 7//90 84//90 85//90
f 86//91 75//91 87//91 88//91
f 89//92 61//93 60//94 90//95
f 90//96 60//97 65//98 70//99
f 80//100 83//101 74//102 73//103
f 91//104 11//105 10//106 92//107
f 93//108 94//108 95//108 96//108
f 36//109 97//109 98//109 41//109
f 99//110 100//111 56//112 25//113
f 100//114 101//115 18//116 56//117
f 41//118 98//118 77//118 67//118
f 50//119 53//119 102//119 103//119
f 53//120 59//120 85//120 102//120
f 104//121 76//121 50//121 103//121
f 18//122 101//123 92//124 10//125
f 75//126 74//126 105//126 87//126
f 106//127 107//127 81//127 80//127
f 108//128 109//129 28//54 45//41
f 110//130 111//131 112//132 89//133
f 113//134 114//135 2//136 1//137
f 114//138 115//139 70//140 2//141
f 116//142 117//143 8//143 58//143
f 118//144 119//145 48//146 34//147
f 119//148 120//149 51//150 48//151
f 121//5 111//5 122//5 5//5
f 123//152 113//153 1//154 124//155
f 115//156 125//157 90//158 70//158
f 120//159 126//160 52//61 51//161
f 12//162 11//163 91//164 124//165
f 101//166 100//167 126//168 120//169
f 37//170 40//171 125//172 115//173
f 33//174 68//175 113//176 123//177
f 108//128 112//178 111//5 121//5
f 92//179 101//180 120//181 119//182
f 91//183 92//184 119//185 118//186
f 99//187 109//188 117//189 116//189
f 38//190 37//191 115//192 114//193
f 68//194 38//195 114//196 113//197
f 66//198 122//199 111//200 110//200
f 109//129 108//128 121//5 117//5
f 34//201 33//202 123//203 118//204
f 4//205 12//206 124//207 1//208
f 118//209 123//210 124//211 91//212
f 117//5 121//5 5//5 8//5
f 112//178 108//128 45//41 44//40
f 106//213 80//214 73//215 127//216
f 94//217 93//217 128//217 129//217
f 79//218 78//5 130//5 6//5
f 127//219 131//219 106//219
f 74//220 83//220 105//220
f 36//221 39//222 71//223 76//224
f 129//225 127//226 73//227 72//228
f 39//229 69//230 32//231 71//232
f 19//233 132//234 16//235 20//236
f 69//237 68//238 33//239 32//240
f 133//241 134//241 135//241 136//241
f 61//242 44//242 47//242 62//242
f 132//243 19//243 137//243
f 65//244 60//244 63//244 64//244
f 65//245 17//246 9//247 3//248
f 134//249 13//250 16//251 132//252
f 3//253 9//254 12//255 4//256
f 122//5 79//218 6//5 5//5
f 133//257 43//258 13//259 134//260
f 94//261 129//262 72//263 95//264
f 40//65 66//64 110//265 125//266
f 100//267 99//268 116//269 126//160
f 126//160 116//269 58//58 52//61
f 125//266 110//265 89//270 90//270
f 6//5 130//5 84//5 7//6
f 96//271 95//271 86//271 88//271
f 109//272 99//273 25//274 28//275
f 129//276 128//276 131//276 127//276
f 112//277 44//278 61//279 89//280
f 95//281 72//282 75//283 86//284
f 122//285 66//285 67//286 79//285
f 136//287 42//287 43//287 133//287
f 8//288 7//288 59//289 58//290
f 134//291 132//291 137//291 135//291
f 97//292 36//292 76//292 104//292
f 14//293 31//293 138//293 15//293
f 43//294 29//295 14//296 13//297
f 87//298 105//298 102//298 85//298
f 135//299 137//299 63//299 62//299
f 77//300 98//300 131//300 128//300
f 103//301 102//301 105//301 82//301
f 26//302 55//302 138//302 31//302
f 107//303 131//303 98//303 97//303
f 104//304 103//304 82//304 81//304
f 46//305 27//305 30//305 42//305
f 24//306 138//306 55//306 54//306
f 57//307 64//307 22//307 21//307
f 64//308 63//308 137//308 22//308
f 96//309 88//309 84//309 130//309
f 97//310 104//310 81//310 107//310
f 47//311 46//311 42//311 136//311
f 54//312 57//312 21//312 24//312
f 93//313 96//313 130//313 78//313
f 88//314 87//314 85//314 84//314
f 136//315 135//315 62//315 47//315
f 78//316 77//316 128//316 93//316
f 27//317 26//317 31//317 30//317
f 15//318 138//318 23//318
f 137//319 19//319 22//319
f 23//320 138//320 24//320
f 105//321 83//321 82//321
f 106//322 131//322 107//322
